<svg xmlns="http://www.w3.org/2000/svg" data-name="Flat Gradient" viewBox="0 0 64 64" id="Cinema"><defs><linearGradient id="a" x1="4" x2="60" y1="32" y2="32" gradientUnits="userSpaceOnUse"><stop offset="0" stop-color="#5fe4d4" class="stopColor00c0ff svgShape"></stop><stop offset="1" stop-color="#8526fe" class="stopColor5558ff svgShape"></stop></linearGradient></defs><path fill="url(#a)" d="M60,13.45333v8.173c-1.35531-.00062-7.41107.00085-8.89319,0,1.05-1.3972,5.89458-7.8402,6.84247-9.10329.02-.02.03-.05.05-.07h1.00036A.99691.99691,0,0,1,60,13.45333ZM57.99928,23.627H60v26.9196A.99691.99691,0,0,1,58.99964,51.547H5.00036A.99691.99691,0,0,1,4,50.54661V23.627c2.195-.00154,5.31674.00212,7.51269,0H22.29652c8.20434.00068,19.12109-.00094,27.30975,0ZM22.0865,45.82492a1.00966,1.00966,0,0,0,1.45045.8903l17.81637-8.91316a.99745.99745,0,0,0,.56017-.89032,1.06345,1.06345,0,0,0-.56017-1.08041L23.537,26.9282a1.006,1.006,0,0,0-1.45049.89031ZM48.60591,21.6263c1.106-1.471,5.889-7.832,6.89248-9.17333H46.42514c-.02.02-.03.05007-.05.07L44.9246,14.45369,39.52271,21.6263Zm-11.5841,0c1.10561-1.46806,5.90154-7.8326,6.90244-9.17333H33.18041c-.02.02-.03.05007-.05.07l-1.45053,1.93068L26.28794,21.6263Zm-26.5295,0c1.08343-1.46366,5.806-7.83307,6.78245-9.17333H5.00036A.99691.99691,0,0,0,4,13.45333v8.173C5.28959,21.62628,9.14542,21.62631,10.49231,21.6263Zm13.29473,0c1.10548-1.46788,5.90171-7.83273,6.90249-9.17333H19.75563c0,.02-.02.04006-.03.06l-1.4305,1.9407-5.3119,7.17261Zm.30016,7.81279V44.20438l14.76523-7.38265Z"></path></svg>